<svg width="342" height="240" viewBox="0 0 342 240" fill="none" xmlns="http://www.w3.org/2000/svg">
	<path d="M31.43 230.638C41.2101 230.638 49.1512 222.697 49.1512 212.917V189.762C49.1512 179.982 41.2101 172.041 31.43 172.041C20.9812 172.041 10.4488 172.041 0 172.041V230.638C10.4488 230.638 20.9812 230.638 31.43 230.638ZM15.2971 187.338H31.43C32.7675 187.338 33.8541 188.425 33.8541 189.762V212.917C33.8541 214.254 32.7675 215.341 31.43 215.341H15.2971V187.338Z" fill="#0097A9" />
	<path d="M70.216 181.403C60.4359 181.403 52.4948 189.344 52.4948 199.124C52.4948 209.573 52.4948 220.189 52.4948 230.638H67.7919C67.7919 220.189 67.7919 209.573 67.7919 199.124C67.7919 197.787 68.8786 196.7 70.216 196.7H79.7453V181.403H70.216Z" fill="#0097A9" />
	<path d="M100.058 181.403C90.2777 181.403 82.253 189.344 82.253 199.124V212.917C82.253 222.697 90.2777 230.638 100.058 230.638H113.767C123.547 230.638 131.488 222.697 131.488 212.917V199.124C131.488 189.344 123.547 181.403 113.767 181.403H100.058ZM113.767 196.7C115.104 196.7 116.191 197.787 116.191 199.124V212.917C116.191 214.254 115.104 215.341 113.767 215.341H100.058C98.7204 215.341 97.5501 214.254 97.5501 212.917V199.124C97.5501 197.787 98.7204 196.7 100.058 196.7H113.767Z" fill="#0097A9" />
	<path d="M166.345 230.638C176.125 230.638 184.066 222.697 184.066 212.917V199.124C184.066 189.344 176.125 181.403 166.345 181.403H152.553C142.773 181.403 134.831 189.344 134.831 199.124C134.831 212.833 134.831 226.375 134.831 240H150.129C150.129 226.375 150.129 212.833 150.129 199.124C150.129 197.787 151.215 196.7 152.553 196.7H166.345C167.682 196.7 168.769 197.787 168.769 199.124V212.917C168.769 214.254 167.682 215.341 166.345 215.341H152.553V230.638H166.345Z" fill="#0097A9" />
	<path d="M218.84 230.638C228.62 230.638 236.561 222.697 236.561 212.917V199.124C236.561 189.344 228.62 181.403 218.84 181.403H205.047C195.267 181.403 187.326 189.344 187.326 199.124C187.326 212.833 187.326 226.375 187.326 240H202.623C202.623 226.375 202.623 212.833 202.623 199.124C202.623 197.787 203.71 196.7 205.047 196.7H218.84C220.177 196.7 221.264 197.787 221.264 199.124V212.917C221.264 214.254 220.177 215.341 218.84 215.341H205.047V230.638H218.84Z" fill="#0097A9" />
	<path d="M257.542 215.424C256.205 215.424 255.118 214.338 255.118 213C255.118 199.375 255.035 185.75 255.035 172.125H239.738C239.738 185.75 239.821 199.291 239.821 213C239.821 222.78 247.762 230.721 257.542 230.721H259.966V215.424H257.542Z" fill="#0097A9" />
	<path d="M310.957 202.468C314.885 189.929 305.022 181.403 294.155 181.403H280.446C270.666 181.403 262.725 189.344 262.725 199.124V212.917C262.725 222.697 270.666 230.638 280.446 230.638C290.895 230.638 301.344 230.638 311.709 230.638V215.341C301.344 215.341 290.895 215.341 280.446 215.341C279.109 215.341 278.022 214.254 278.022 212.917V199.124C278.022 197.787 279.109 196.7 280.446 196.7H294.155C295.91 196.7 296.913 198.121 296.412 199.793L292.316 213H307.613L310.957 202.468Z" fill="#0097A9" />
	<path d="M332.439 181.403C322.659 181.403 314.718 189.344 314.718 199.124C314.718 209.573 314.718 220.189 314.718 230.638H330.015C330.015 220.189 330.015 209.573 330.015 199.124C330.015 197.787 331.102 196.7 332.439 196.7H341.969V181.403H332.439Z" fill="#0097A9" />
	<path fill-rule="evenodd" clip-rule="evenodd" d="M104.587 0.304751C103.183 0.813751 101.853 1.97475 101.187 3.26875L100.614 4.38574L100.61 33.0597L100.606 61.7347L101.293 62.9977C102.888 65.9287 106.324 67.0017 109.28 65.4937C110.48 64.8817 111.981 63.1307 112.305 61.9647C112.463 61.3957 112.557 51.9177 112.558 36.4607L112.56 11.8628L144.645 11.9547C178.037 12.0497 177.758 12.0417 183.211 13.1677C202.325 17.1167 218.014 30.1417 225.497 48.2737C228.699 56.0317 229.908 62.9877 229.641 72.1137C229.481 77.5677 229.112 80.2387 227.832 85.2017C225.862 92.8447 222.343 99.8527 217.063 106.648C209.763 116.046 197.761 123.764 185.787 126.762C178.061 128.697 176.12 128.786 141.849 128.787H112.56V125.437C112.56 122.559 112.485 121.932 112.029 120.99C111.003 118.871 108.883 117.605 106.359 117.605C104.889 117.605 103.788 118.052 102.526 119.16C100.698 120.765 100.627 121.14 100.621 129.178C100.615 136.069 100.634 136.341 101.187 137.434C101.84 138.725 103.49 140.081 104.878 140.466C106.181 140.828 169.854 140.826 174.697 140.464C180.829 140.006 186.265 139.044 191.267 137.532C206.36 132.97 219.955 123.358 228.616 111.125C243.492 90.1117 245.749 62.1387 234.426 39.1178C231.152 32.4628 227.358 27.1188 221.974 21.5798C210.808 10.0918 196.412 2.91276 179.78 0.53876C177.04 0.14876 173.116 0.0957589 141.151 0.0267589C111.099 -0.0392411 105.418 0.00375113 104.587 0.304751Z" fill="#0097A9" />
	<path fill-rule="evenodd" clip-rule="evenodd" d="M134.543 30.1477C133.212 30.7557 131.475 32.6687 131.133 33.9027C130.955 34.5417 130.861 39.5217 130.862 48.2247L130.863 61.5667L131.477 62.8857C133.427 67.0747 139.598 67.3117 141.962 63.2877L142.675 62.0757L142.75 51.8327L142.824 41.5917L157.998 41.6787C174.682 41.7747 173.67 41.6877 178.382 43.4287C190.109 47.7597 198.136 59.8307 197.346 71.9457C196.867 79.2847 194.256 85.1527 189.183 90.2867C182.509 97.0417 175.634 99.4367 163.388 99.2737C160.04 99.2287 159.315 99.2887 158.559 99.6737C155.831 101.065 154.503 103.993 155.347 106.752C155.869 108.454 156.798 109.563 158.348 110.336C159.659 110.99 159.745 110.998 165.375 110.998C173.193 110.998 177.574 110.322 182.776 108.314C195.962 103.224 205.516 92.2287 208.377 78.8487C209.22 74.9067 209.359 67.6337 208.668 63.6007C207.306 55.6457 203.554 48.3457 197.726 42.3137C190.974 35.3247 183.538 31.5327 173.736 30.0787C171.425 29.7357 168.224 29.6737 153.278 29.6787C136.666 29.6837 135.496 29.7127 134.543 30.1477Z" fill="#FFC72C" />
	<path fill-rule="evenodd" clip-rule="evenodd" d="M159.042 59.9127C157.697 60.6237 156.593 62.0197 156.137 63.5877C155.419 66.0597 156.097 67.8707 158.679 70.3667C159.592 71.2487 160.338 72.0457 160.338 72.1377C160.338 72.2297 152.19 72.3217 142.231 72.3417L124.123 72.3777L122.758 73.0717C121.078 73.9257 120.029 75.3157 119.642 77.1977C119.119 79.7477 120.397 82.2747 122.848 83.5367L124.109 84.1857L142.251 84.2577L160.392 84.3287L159.206 85.5967C157.735 87.1697 157.216 88.3567 157.211 90.1577C157.201 94.1567 161.503 96.9587 165.023 95.2467C166.05 94.7467 178.415 83.0227 179.578 81.4457C180.766 79.8357 180.993 77.5187 180.137 75.7497C179.54 74.5147 165.487 60.6167 164.074 59.8627C162.93 59.2517 160.242 59.2787 159.042 59.9127Z" fill="#FFC72C" />
	<path fill-rule="evenodd" clip-rule="evenodd" d="M104.462 72.7008C103.186 73.1858 101.751 74.5008 101.161 75.7278C100.689 76.7078 100.63 77.3708 100.564 82.4068C100.493 87.8248 100.509 88.0348 101.084 89.2048C103.026 93.1588 108.084 93.7858 111.101 90.4468C112.483 88.9158 112.605 88.1878 112.514 82.0048L112.433 76.5198L111.664 75.2768C110.589 73.5398 108.99 72.5938 106.919 72.4708C105.995 72.4158 104.955 72.5128 104.462 72.7008Z" fill="#FFC72C" />
	<path fill-rule="evenodd" clip-rule="evenodd" d="M103.781 110.396C99.5584 108.429 99.1984 102.513 103.158 100.133L104.532 99.3067H124.056C139.863 99.3067 143.737 99.3727 144.399 99.6497C146.505 100.532 148.134 102.933 148.134 105.152C148.134 106.651 147.161 108.716 146.056 109.558C145.757 109.787 145.525 109.979 145.273 110.141C143.936 111 142.046 111 126.569 110.996C125.811 110.996 125.02 110.995 124.195 110.995L105.063 110.993L103.781 110.396Z" fill="#FFC72C" />
</svg>
