<svg width="150" height="150" viewBox="0 0 150 150" fill="none" xmlns="http://www.w3.org/2000/svg">
	<path fill-rule="evenodd" clip-rule="evenodd" d="M8.19717 5.30475C6.79317 5.81375 5.46318 6.97475 4.79718 8.26875L4.22418 9.38574L4.22018 38.0597L4.21619 66.7347L4.90318 67.9977C6.49818 70.9287 9.93418 72.0017 12.8902 70.4937C14.0902 69.8817 15.5912 68.1307 15.9152 66.9647C16.0732 66.3957 16.1672 56.9177 16.1682 41.4607L16.1702 16.8628L48.2552 16.9547C81.6472 17.0497 81.3682 17.0417 86.8212 18.1677C105.935 22.1167 121.624 35.1417 129.107 53.2737C132.309 61.0317 133.518 67.9877 133.251 77.1137C133.091 82.5677 132.722 85.2387 131.442 90.2017C129.472 97.8447 125.953 104.853 120.673 111.648C113.373 121.046 101.371 128.764 89.3972 131.762C81.6712 133.697 79.7302 133.786 45.4592 133.787H16.1702V130.437C16.1702 127.559 16.0952 126.932 15.6392 125.99C14.6132 123.871 12.4932 122.605 9.96918 122.605C8.49918 122.605 7.39818 123.052 6.13618 124.16C4.30818 125.765 4.23719 126.14 4.23119 134.178C4.22519 141.069 4.24418 141.341 4.79718 142.434C5.45018 143.725 7.10017 145.081 8.48817 145.466C9.79117 145.828 73.4642 145.826 78.3072 145.464C84.4392 145.006 89.8752 144.044 94.8772 142.532C109.97 137.97 123.565 128.358 132.226 116.125C147.102 95.1117 149.359 67.1387 138.036 44.1178C134.762 37.4628 130.968 32.1188 125.584 26.5798C114.418 15.0918 100.022 7.91276 83.3902 5.53876C80.6502 5.14876 76.7262 5.09576 44.7612 5.02676C14.7092 4.96076 9.02817 5.00375 8.19717 5.30475Z" fill="#0097A9" />
	<path fill-rule="evenodd" clip-rule="evenodd" d="M38.1532 35.1477C36.8222 35.7557 35.0852 37.6687 34.7432 38.9027C34.5652 39.5417 34.4712 44.5217 34.4722 53.2247L34.4732 66.5667L35.0872 67.8857C37.0372 72.0747 43.2082 72.3117 45.5722 68.2877L46.2852 67.0757L46.3602 56.8327L46.4342 46.5917L61.6082 46.6787C78.2922 46.7747 77.2802 46.6877 81.9922 48.4287C93.7192 52.7597 101.746 64.8307 100.956 76.9457C100.477 84.2847 97.8662 90.1527 92.7932 95.2867C86.1192 102.042 79.2442 104.437 66.9982 104.274C63.6502 104.229 62.9252 104.289 62.1692 104.674C59.4412 106.065 58.1132 108.993 58.9572 111.752C59.4792 113.454 60.4082 114.563 61.9582 115.336C63.2692 115.99 63.3552 115.998 68.9852 115.998C76.8032 115.998 81.1842 115.322 86.3862 113.314C99.5722 108.224 109.126 97.2287 111.987 83.8487C112.83 79.9067 112.969 72.6337 112.278 68.6007C110.916 60.6457 107.164 53.3457 101.336 47.3137C94.5842 40.3247 87.1482 36.5327 77.3462 35.0787C75.0352 34.7357 71.8342 34.6737 56.8882 34.6787C40.2762 34.6837 39.1062 34.7127 38.1532 35.1477Z" fill="#FFC72C" />
	<path fill-rule="evenodd" clip-rule="evenodd" d="M62.6522 64.9127C61.3072 65.6237 60.2032 67.0197 59.7472 68.5877C59.0292 71.0597 59.7072 72.8707 62.2892 75.3667C63.2022 76.2487 63.9482 77.0457 63.9482 77.1377C63.9482 77.2297 55.8002 77.3217 45.8412 77.3417L27.7332 77.3777L26.3682 78.0717C24.6882 78.9257 23.6392 80.3157 23.2522 82.1977C22.7292 84.7477 24.0072 87.2747 26.4582 88.5367L27.7192 89.1857L45.8612 89.2577L64.0022 89.3287L62.8162 90.5967C61.3452 92.1697 60.8262 93.3567 60.8212 95.1577C60.8112 99.1567 65.1132 101.959 68.6332 100.247C69.6602 99.7467 82.0252 88.0227 83.1882 86.4457C84.3762 84.8357 84.6032 82.5187 83.7472 80.7497C83.1502 79.5147 69.0972 65.6167 67.6842 64.8627C66.5402 64.2517 63.8522 64.2787 62.6522 64.9127Z" fill="#FFC72C" />
	<path fill-rule="evenodd" clip-rule="evenodd" d="M8.07218 77.7007C6.79618 78.1857 5.36118 79.5007 4.77118 80.7277C4.29918 81.7077 4.24018 82.3707 4.17418 87.4067C4.10318 92.8247 4.11919 93.0347 4.69419 94.2047C6.63619 98.1587 11.6942 98.7857 14.7112 95.4467C16.0932 93.9157 16.2152 93.1877 16.1242 87.0047L16.0432 81.5197L15.2742 80.2767C14.1992 78.5397 12.6002 77.5937 10.5292 77.4707C9.60518 77.4157 8.56518 77.5127 8.07218 77.7007Z" fill="#FFC72C" />
	<path fill-rule="evenodd" clip-rule="evenodd" d="M7.39118 115.396C3.16818 113.429 2.80819 107.513 6.76819 105.133L8.14218 104.307H27.6662C43.4732 104.307 47.3472 104.373 48.0092 104.65C50.1152 105.532 51.7442 107.933 51.7442 110.152C51.7442 111.651 50.7712 113.716 49.6662 114.558C49.3672 114.787 49.1352 114.979 48.8832 115.141C47.5462 116 45.6562 116 30.1792 115.996C29.4212 115.996 28.6302 115.995 27.8052 115.995L8.67319 115.993L7.39118 115.396Z" fill="#FFC72C" />
</svg>
