<svg xmlns="http://www.w3.org/2000/svg" fill="none" viewBox="0 0 342 240">
	<path fill="#ffffff" d="M31.43 230.638c9.78 0 17.721-7.941 17.721-17.721v-23.155c0-9.78-7.94-17.721-17.721-17.721H0v58.597h31.43Zm-16.133-43.3H31.43a2.426 2.426 0 0 1 2.424 2.424v23.155a2.426 2.426 0 0 1-2.424 2.424H15.297v-28.003ZM70.216 181.403c-9.78 0-17.721 7.941-17.721 17.721v31.514h15.297v-31.514a2.426 2.426 0 0 1 2.424-2.424h9.53v-15.297h-9.53ZM100.058 181.403c-9.78 0-17.805 7.941-17.805 17.721v13.793c0 9.78 8.025 17.721 17.805 17.721h13.709c9.78 0 17.721-7.941 17.721-17.721v-13.793c0-9.78-7.941-17.721-17.721-17.721h-13.709Zm13.709 15.297a2.426 2.426 0 0 1 2.424 2.424v13.793a2.426 2.426 0 0 1-2.424 2.424h-13.709c-1.338 0-2.508-1.087-2.508-2.424v-13.793c0-1.337 1.17-2.424 2.508-2.424h13.709ZM166.345 230.638c9.78 0 17.721-7.941 17.721-17.721v-13.793c0-9.78-7.941-17.721-17.721-17.721h-13.792c-9.78 0-17.722 7.941-17.722 17.721V240h15.298v-40.876a2.426 2.426 0 0 1 2.424-2.424h13.792a2.426 2.426 0 0 1 2.424 2.424v13.793a2.426 2.426 0 0 1-2.424 2.424h-13.792v15.297h13.792ZM218.84 230.638c9.78 0 17.721-7.941 17.721-17.721v-13.793c0-9.78-7.941-17.721-17.721-17.721h-13.793c-9.78 0-17.721 7.941-17.721 17.721V240h15.297v-40.876a2.426 2.426 0 0 1 2.424-2.424h13.793a2.426 2.426 0 0 1 2.424 2.424v13.793a2.426 2.426 0 0 1-2.424 2.424h-13.793v15.297h13.793ZM257.542 215.424a2.426 2.426 0 0 1-2.424-2.424c0-13.625-.083-27.25-.083-40.875h-15.297c0 13.625.083 27.166.083 40.875 0 9.78 7.941 17.721 17.721 17.721h2.424v-15.297h-2.424ZM310.957 202.468c3.928-12.539-5.935-21.065-16.802-21.065h-13.709c-9.78 0-17.721 7.941-17.721 17.721v13.793c0 9.78 7.941 17.721 17.721 17.721h31.263v-15.297h-31.263a2.426 2.426 0 0 1-2.424-2.424v-13.793a2.426 2.426 0 0 1 2.424-2.424h13.709c1.755 0 2.758 1.421 2.257 3.093L292.316 213h15.297l3.344-10.532ZM332.439 181.403c-9.78 0-17.721 7.941-17.721 17.721v31.514h15.297v-31.514a2.426 2.426 0 0 1 2.424-2.424h9.53v-15.297h-9.53Z" />
	<path fill="#ffffff" fill-rule="evenodd" d="M104.587.305c-1.404.509-2.734 1.67-3.4 2.964l-.573 1.117-.004 28.674-.004 28.675.687 1.263c1.595 2.93 5.031 4.004 7.987 2.496 1.2-.612 2.701-2.363 3.025-3.53.158-.568.252-10.046.253-25.503l.002-24.598 32.085.092c33.392.095 33.113.087 38.566 1.213 19.114 3.949 34.803 16.974 42.286 35.106 3.202 7.758 4.411 14.714 4.144 23.84-.16 5.454-.529 8.125-1.809 13.088-1.97 7.643-5.489 14.65-10.769 21.446-7.3 9.398-19.302 17.116-31.276 20.114-7.726 1.935-9.667 2.024-43.938 2.025H112.56v-3.35c0-2.878-.075-3.505-.531-4.447-1.026-2.119-3.146-3.385-5.67-3.385-1.47 0-2.571.447-3.833 1.555-1.828 1.605-1.899 1.98-1.905 10.018-.006 6.891.013 7.163.566 8.256.653 1.291 2.303 2.647 3.691 3.032 1.303.362 64.976.36 69.819-.002 6.132-.458 11.568-1.42 16.57-2.932 15.093-4.562 28.688-14.174 37.349-26.407 14.876-21.013 17.133-48.986 5.81-72.007-3.274-6.655-7.068-12-12.452-17.538C210.808 10.092 196.412 2.913 179.78.539c-2.74-.39-6.664-.443-38.629-.512-30.052-.066-35.733-.023-36.564.278Z" clip-rule="evenodd" />
	<path fill="#ffe50a" fill-rule="evenodd" d="M134.543 30.148c-1.331.608-3.068 2.52-3.41 3.755-.178.639-.272 5.619-.271 14.322l.001 13.342.614 1.319c1.95 4.189 8.121 4.426 10.485.402l.713-1.212.075-10.243.074-10.241 15.174.087c16.684.096 15.672.009 20.384 1.75 11.727 4.33 19.754 16.402 18.964 28.517-.479 7.339-3.09 13.207-8.163 18.34-6.674 6.756-13.549 9.15-25.795 8.988-3.348-.045-4.073.015-4.829.4-2.728 1.391-4.056 4.319-3.212 7.078.522 1.702 1.451 2.811 3.001 3.584 1.311.654 1.397.662 7.027.662 7.818 0 12.199-.676 17.401-2.684 13.186-5.09 22.74-16.085 25.601-29.465.843-3.942.982-11.215.291-15.248-1.362-7.955-5.114-15.255-10.942-21.287-6.752-6.99-14.188-10.781-23.99-12.235-2.311-.343-5.512-.405-20.458-.4-16.612.005-17.782.034-18.735.469Z" clip-rule="evenodd" />
	<path fill="#ffe50a" fill-rule="evenodd" d="M159.042 59.913c-1.345.71-2.449 2.107-2.905 3.675-.718 2.472-.04 4.283 2.542 6.779.913.882 1.659 1.679 1.659 1.77 0 .093-8.148.185-18.107.205l-18.108.036-1.365.694c-1.68.854-2.729 2.244-3.116 4.126-.523 2.55.755 5.077 3.206 6.339l1.261.649 18.142.072 18.141.07-1.186 1.269c-1.471 1.573-1.99 2.76-1.995 4.56-.01 4 4.292 6.802 7.812 5.09 1.027-.5 13.392-12.224 14.555-13.801 1.188-1.61 1.415-3.927.559-5.696-.597-1.235-14.65-15.133-16.063-15.887-1.144-.611-3.832-.584-5.032.05ZM104.462 72.7c-1.276.486-2.711 1.8-3.301 3.028-.472.98-.531 1.643-.597 6.679-.071 5.418-.055 5.628.52 6.798 1.942 3.954 7 4.58 10.017 1.242 1.382-1.531 1.504-2.26 1.413-8.442l-.081-5.485-.769-1.243c-1.075-1.737-2.674-2.683-4.745-2.806-.924-.055-1.964.042-2.457.23ZM103.781 110.396c-4.223-1.967-4.583-7.883-.623-10.263l1.374-.826h19.524c15.807 0 19.681.066 20.343.343 2.106.882 3.735 3.283 3.735 5.502 0 1.499-.973 3.564-2.078 4.406-.299.229-.531.421-.783.583-1.337.859-3.227.859-18.704.855l-2.374-.001-19.132-.002-1.282-.597Z" clip-rule="evenodd" />
</svg>
