<svg xmlns="http://www.w3.org/2000/svg" fill="none" viewBox="0 0 150 150">
	<path fill="#0097A9" fill-rule="evenodd" d="M8.197 5.305c-1.404.509-2.734 1.67-3.4 2.964l-.573 1.117L4.22 38.06l-.004 28.675.687 1.263c1.595 2.93 5.031 4.004 7.987 2.496 1.2-.612 2.701-2.363 3.025-3.53.158-.568.252-10.046.253-25.503l.002-24.598 32.085.092c33.392.095 33.113.087 38.566 1.213 19.114 3.949 34.803 16.974 42.286 35.106 3.202 7.758 4.411 14.714 4.144 23.84-.16 5.454-.529 8.125-1.809 13.088-1.97 7.643-5.489 14.651-10.769 21.446-7.3 9.398-19.302 17.116-31.276 20.114-7.726 1.935-9.667 2.024-43.938 2.025H16.17v-3.35c0-2.878-.075-3.505-.53-4.447-1.027-2.119-3.147-3.385-5.67-3.385-1.47 0-2.572.447-3.834 1.555-1.828 1.605-1.899 1.98-1.905 10.018-.006 6.891.013 7.163.566 8.256.653 1.291 2.303 2.647 3.691 3.032 1.303.362 64.976.36 69.82-.002 6.131-.458 11.567-1.42 16.57-2.932 15.092-4.562 28.687-14.174 37.348-26.407 14.876-21.013 17.133-48.986 5.81-72.007-3.274-6.655-7.068-12-12.452-17.538C114.418 15.092 100.022 7.913 83.39 5.539c-2.74-.39-6.664-.443-38.629-.512-30.052-.066-35.733-.023-36.564.278Z" clip-rule="evenodd" />
	<path fill="#FFC72C" fill-rule="evenodd" d="M38.153 35.148c-1.33.608-3.068 2.52-3.41 3.755-.178.639-.272 5.619-.27 14.322v13.342l.614 1.319c1.95 4.189 8.121 4.426 10.485.402l.713-1.212.075-10.243.074-10.241 15.174.087c16.684.096 15.672.009 20.384 1.75 11.727 4.33 19.754 16.402 18.964 28.517-.479 7.339-3.09 13.207-8.163 18.34-6.674 6.756-13.549 9.151-25.795 8.988-3.348-.045-4.073.015-4.829.4-2.728 1.391-4.056 4.319-3.212 7.078.522 1.702 1.451 2.811 3.001 3.584 1.311.654 1.397.662 7.027.662 7.818 0 12.2-.676 17.401-2.684 13.186-5.09 22.74-16.085 25.601-29.465.843-3.942.982-11.215.291-15.248-1.362-7.955-5.114-15.255-10.942-21.287-6.752-6.99-14.188-10.781-23.99-12.235-2.31-.343-5.512-.405-20.458-.4-16.612.005-17.782.034-18.735.469Z" clip-rule="evenodd" />
	<path fill="#FFC72C" fill-rule="evenodd" d="M62.652 64.913c-1.345.71-2.449 2.107-2.905 3.675-.718 2.472-.04 4.283 2.542 6.779.913.882 1.66 1.679 1.66 1.77 0 .093-8.149.185-18.108.205l-18.108.036-1.365.694c-1.68.854-2.729 2.244-3.116 4.126-.523 2.55.755 5.077 3.206 6.339l1.261.649 18.142.072 18.141.07-1.186 1.269c-1.47 1.573-1.99 2.76-1.995 4.56-.01 4 4.292 6.802 7.812 5.09 1.027-.5 13.392-12.224 14.555-13.801 1.188-1.61 1.415-3.927.56-5.696-.598-1.235-14.65-15.133-16.064-15.887-1.144-.611-3.832-.584-5.032.05ZM8.072 77.7c-1.276.486-2.71 1.8-3.3 3.028-.473.98-.532 1.643-.598 6.679-.07 5.418-.055 5.628.52 6.798 1.942 3.954 7 4.58 10.017 1.242 1.382-1.531 1.504-2.26 1.413-8.442l-.08-5.485-.77-1.243C14.2 78.54 12.6 77.594 10.53 77.47c-.924-.055-1.964.042-2.457.23ZM7.391 115.396c-4.223-1.967-4.583-7.883-.623-10.263l1.374-.826h19.524c15.807 0 19.681.066 20.343.343 2.106.882 3.735 3.283 3.735 5.502 0 1.499-.973 3.564-2.078 4.406-.299.229-.53.421-.783.583-1.337.859-3.227.859-18.704.855l-2.374-.001-19.132-.002-1.282-.597Z" clip-rule="evenodd" />
</svg>
